<svg width="124" height="44" viewBox="0 0 124 44" fill="none" xmlns="http://www.w3.org/2000/svg">
<g id="logo-light">
<g id="LINE">
<path id="Path 993" fill-rule="evenodd" clip-rule="evenodd" d="M0 41.3187C41.334 40.1272 82.6649 40.1858 123.993 41.4946C123.993 41.4946 98.3953 38.7903 61.5969 38.7381C24.7986 38.6859 0 41.3187 0 41.3187Z" fill="white"/>
</g>
<g id="LETTERS">
<path id="Path 994" d="M20.4715 13.6837C19.5393 12.6141 18.3907 11.7627 17.1046 11.1881C15.8185 10.6134 14.4254 10.3291 13.0211 10.3546C11.7244 10.3447 10.4377 10.5869 9.23025 11.0683C7.92257 11.6026 6.78579 12.4952 5.94596 13.6471V0H0.00276184V34.3225H5.94776V31.314C6.89074 32.2696 8.001 33.037 9.22125 33.5768C10.3633 34.0521 11.5867 34.2922 12.8205 34.2831C14.2409 34.2908 15.6467 33.9898 16.9439 33.4004C18.241 32.811 19.3998 31.9467 20.3428 30.8651C22.4679 28.5649 23.6127 25.5021 23.5272 22.3454C23.6529 19.1636 22.5569 16.057 20.4715 13.6837ZM11.8973 28.0326C10.7666 28.0311 9.66179 27.6883 8.7225 27.0476C7.78321 26.4068 7.05164 25.4969 6.62032 24.4328C6.189 23.3688 6.07729 22.1984 6.29933 21.0697C6.52137 19.941 7.06718 18.9046 7.86774 18.0918C8.66829 17.2789 9.68764 16.726 10.7969 16.5029C11.9061 16.2799 13.0553 16.3968 14.0993 16.8387C15.1433 17.2807 16.0351 18.028 16.662 18.986C17.2888 19.944 17.6225 21.0697 17.6209 22.2209C17.62 22.9851 17.4712 23.7417 17.183 24.4474C16.8948 25.1531 16.473 25.794 15.9415 26.3337C15.41 26.8734 14.7792 27.3012 14.0853 27.5927C13.3914 27.8842 12.6479 28.0337 11.8973 28.0326Z" fill="white"/>
<path id="Path 995" d="M47.3793 16.3678C46.3433 14.5293 44.8357 13.0122 43.018 11.9788C41.2009 10.9131 39.1403 10.3532 37.0433 10.3555C34.7261 10.3872 32.4692 11.1117 30.5532 12.4388C28.6373 13.766 27.1468 15.6373 26.267 17.82C25.3873 20.0027 25.1572 22.4006 25.6054 24.7154C26.0535 27.0302 27.1601 29.1598 28.7876 30.8394C29.8529 31.9668 31.1344 32.8594 32.5525 33.4619C33.9706 34.0643 35.4951 34.3638 37.0316 34.3417C39.1367 34.367 41.2107 33.8236 43.0423 32.7669C44.8443 31.7311 46.3348 30.2146 47.3532 28.3806C48.399 26.5475 48.9471 24.4643 48.9414 22.3444C48.9535 20.2461 48.4142 18.1825 47.3793 16.3678ZM37.1216 28.0307C35.9916 28.0261 34.8883 27.6807 33.951 27.0381C33.0137 26.3955 32.2845 25.4845 31.8555 24.4202C31.4266 23.3558 31.317 22.1859 31.5408 21.0583C31.7646 19.9306 32.3116 18.8957 33.1127 18.0844C33.9139 17.2731 34.9333 16.7217 36.0421 16.4999C37.1509 16.2782 38.2993 16.3959 39.3424 16.8383C40.3855 17.2808 41.2764 18.028 41.9026 18.9857C42.5288 19.9434 42.8621 21.0685 42.8605 22.2189C42.8591 22.9844 42.7095 23.7421 42.4203 24.4487C42.1311 25.1553 41.708 25.7969 41.1751 26.3369C40.6422 26.8769 40.01 27.3047 39.3146 27.5958C38.6192 27.8869 37.8743 28.0356 37.1225 28.0334L37.1216 28.0307Z" fill="white"/>
<path id="Path 996" d="M97.0576 29.6411C97.0522 23.9457 97.0576 10.3252 97.0576 10.3252H90.9065V13.4628C89.9447 12.4679 88.812 11.6606 87.5646 11.081C86.406 10.5935 85.1641 10.3444 83.9105 10.3481C82.587 10.3286 81.2732 10.5814 80.048 11.0915C78.8228 11.6015 77.7114 12.3582 76.7805 13.3163C75.668 14.4591 74.7997 15.8238 74.2302 17.3246C73.6606 18.8255 73.4022 20.43 73.471 22.0375C73.3629 25.3195 74.4684 28.5233 76.569 31.0153C77.5366 32.0844 78.7152 32.9331 80.0275 33.5059C81.3399 34.0787 82.7564 34.3626 84.1841 34.3389C85.4435 34.3612 86.6956 34.1389 87.8732 33.6838C89.0448 33.1853 90.1039 32.4483 90.9856 31.5182C90.9856 31.6794 90.9758 31.8315 90.9686 31.9863C90.8686 33.7931 90.104 35.4953 88.8269 36.7539C87.5498 38.0125 85.8539 38.7353 84.077 38.7783C82.6872 38.6983 81.333 38.3003 80.1152 37.6138C78.8974 36.9274 77.8474 35.9701 77.0432 34.8134L73.4746 38.4466C75.0753 40.7333 77.3488 42.4423 79.9665 43.3265C82.5842 44.2108 85.4102 44.2244 88.036 43.3655C90.6618 42.5066 92.9512 40.8196 94.5732 38.5486C96.1951 36.2775 97.0655 33.5401 97.0584 30.7322C97.0575 30.3364 97.0522 29.97 97.0576 29.6411ZM85.1801 28.0242C84.0495 28.0227 82.9446 27.68 82.0054 27.0392C81.0661 26.3985 80.3345 25.4885 79.9032 24.4245C79.4719 23.3604 79.3601 22.19 79.5822 21.0613C79.8042 19.9326 80.3501 18.8963 81.1506 18.0834C81.9512 17.2705 82.9705 16.7176 84.0797 16.4946C85.1889 16.2715 86.3382 16.3884 87.3822 16.8304C88.4262 17.2723 89.318 18.0196 89.9448 18.9776C90.5716 19.9356 90.9054 21.0614 90.9038 22.2125C90.9034 22.9772 90.755 23.7343 90.4671 24.4406C90.1791 25.1469 89.7572 25.7885 89.2256 26.3286C88.6939 26.8688 88.0629 27.297 87.3686 27.5887C86.6743 27.8804 85.9303 28.03 85.1792 28.0288L85.1801 28.0242Z" fill="white"/>
<path id="Path 997" d="M71.629 18.7078C71.6314 16.9571 71.0933 15.2499 70.0907 13.8276C69.0881 12.4052 67.6718 11.3397 66.0419 10.7816C64.4121 10.2235 62.6512 10.201 61.0081 10.7174C59.3651 11.2338 57.923 12.2629 56.8857 13.6592L56.892 10.3457H50.7913V34.3227H56.892L56.874 24.6212C56.874 23.8132 56.874 20.9862 56.874 20.802C56.8757 19.6279 57.3354 18.5026 58.1521 17.6735C58.9687 16.8445 60.0754 16.3797 61.2286 16.3814C62.3819 16.3831 63.4872 16.8512 64.3015 17.6826C65.1158 18.514 65.5723 19.6407 65.5706 20.8149C65.5706 20.9898 65.5706 23.4908 65.5706 23.7968L65.5562 34.3236L71.6236 34.3328C71.6236 34.3328 71.629 18.7784 71.629 18.7078Z" fill="white"/>
</g>
<g id="ICON_1_">
<g id="Group 21">
<path id="Path 998" d="M117.535 11.201L119.123 7.99464C119.18 8.00128 119.238 8.00464 119.296 8.00472C119.658 8.00493 120.009 7.87776 120.289 7.64474C120.569 7.41172 120.762 7.08718 120.834 6.7261C120.907 6.36502 120.854 5.9896 120.686 5.66345C120.517 5.33729 120.243 5.08045 119.91 4.93643C119.577 4.79242 119.205 4.77008 118.858 4.87321C118.51 4.97634 118.208 5.1986 118.003 5.50232C117.798 5.80605 117.703 6.17257 117.733 6.5398C117.763 6.90702 117.917 7.25238 118.168 7.51735L116.584 10.7182C114.245 9.65124 111.642 9.34044 109.124 9.82775L108.186 6.07908C108.874 5.73163 109.413 5.13855 109.7 4.41274C109.987 3.68693 110.002 2.87907 109.742 2.14295C109.481 1.40682 108.964 0.793835 108.289 0.420674C107.613 0.0475133 106.827 -0.0597646 106.079 0.119262C105.331 0.298288 104.673 0.751118 104.232 1.39155C103.791 2.03198 103.596 2.8153 103.685 3.59238C103.774 4.36947 104.141 5.08606 104.715 5.60575C105.29 6.12544 106.032 6.41194 106.8 6.41071C106.825 6.41071 106.846 6.41071 106.87 6.41071L107.808 10.1566C105.04 11.0138 102.648 12.8188 101.038 15.266C99.4273 17.7132 98.6974 20.6519 98.9718 23.5843C99.2461 26.5167 100.508 29.2623 102.543 31.356C104.578 33.4496 107.262 34.7626 110.139 35.0723C113.016 35.382 115.91 34.6694 118.33 33.0553C120.751 31.4412 122.548 29.0249 123.419 26.2158C124.289 23.4066 124.179 20.3775 123.107 17.6416C122.035 14.9056 120.067 12.6312 117.536 11.2037L117.535 11.201ZM109.098 29.3287L109.033 29.3663C108.803 29.4939 108.546 29.5604 108.285 29.5596C107.869 29.5596 107.471 29.3916 107.177 29.0925C106.883 28.7934 106.718 28.3877 106.717 27.9646V16.7534C106.72 16.4785 106.793 16.209 106.928 15.9711C107.064 15.7331 107.257 15.5348 107.49 15.3955C107.723 15.2561 107.987 15.1803 108.257 15.1756C108.527 15.1708 108.793 15.2372 109.031 15.3683H109.04L118.553 20.9565C118.58 20.9721 118.607 20.9867 118.633 21.0032C118.858 21.1457 119.044 21.3442 119.174 21.58C119.303 21.8158 119.372 22.0812 119.373 22.3514C119.374 22.6215 119.308 22.8876 119.181 23.1246C119.054 23.3617 118.869 23.5619 118.645 23.7066C118.616 23.7259 118.587 23.7442 118.555 23.7616L114.498 26.1434L109.098 29.3287Z" fill="white"/>
</g>
</g>
</g>
</svg>
